<svg xmlns="http://www.w3.org/2000/svg" width="250" height="250" viewBox="0 0 256 256"><path fill="#fff" stroke-miterlimit="10" d="M37.059 12.98a1.996 1.996 0 0 0-1.899 1.176 1.998 1.998 0 0 0 .371 2.203L41.676 23H3a1.988 1.988 0 0 0-1.754.992 1.982 1.982 0 0 0 0 2.016A1.988 1.988 0 0 0 3 27h38.676l-6.145 6.64a2.003 2.003 0 0 0 1.016 3.336 2.003 2.003 0 0 0 1.922-.617L48.973 25 38.469 13.64a2.006 2.006 0 0 0-1.41-.66z" font-family="none" font-size="none" font-weight="none" style="mix-blend-mode:normal" text-anchor="none" transform="scale(5.12)"/></svg>