<svg width="193" height="210" viewBox="0 0 193 210" fill="none" xmlns="http://www.w3.org/2000/svg">
<path d="M0 19.0782C0 11.9845 8.5478 8.40015 13.6073 13.3722L27.6073 27.1302C29.1379 28.6343 30 30.6902 30 32.8361V197.088C30 201.506 26.4183 205.088 22 205.088H8C3.58172 205.088 0 201.506 0 197.088V19.0782Z" fill="#234A7D"/>
<path d="M177.914 190.112C177.914 197.205 169.366 200.79 164.306 195.817L150.306 182.06C148.776 180.555 147.914 178.499 147.914 176.354L147.914 12.1017C147.914 7.68347 151.495 4.10174 155.914 4.10174L169.914 4.10175C174.332 4.10175 177.914 7.68347 177.914 12.1017L177.914 190.112Z" fill="#234A7D"/>
<rect x="177.914" y="79.4717" width="30" height="177.914" rx="8" transform="rotate(90 177.914 79.4717)" fill="#234A7D"/>
<path d="M176.558 176.116C177.695 176.092 178.623 177.02 178.6 178.156L178.055 204.836C178.019 206.593 175.898 207.453 174.649 206.217L148.259 180.1C147.003 178.857 147.858 176.716 149.624 176.679L176.558 176.116Z" fill="#AFCBFF"/>
</svg>
