<svg width="193" height="210" fill="none" xmlns="http://www.w3.org/2000/svg"><path d="M0 19.078C0 11.985 8.548 8.4 13.607 13.372l14 13.758A8 8 0 0 1 30 32.836v164.252a8 8 0 0 1-8 8H8a8 8 0 0 1-8-8V19.078ZM177.914 190.112c0 7.093-8.548 10.678-13.608 5.705l-14-13.757a8.005 8.005 0 0 1-2.392-5.706V12.102a8 8 0 0 1 8-8h14a8 8 0 0 1 8 8v178.01Z" fill="#234A7D"/><rect x="177.914" y="79.472" width="30" height="177.914" rx="8" transform="rotate(90 177.914 79.472)" fill="#234A7D"/><path d="M176.558 176.116a2 2 0 0 1 2.042 2.04l-.545 26.68c-.036 1.757-2.157 2.617-3.406 1.381l-26.39-26.117c-1.256-1.243-.401-3.384 1.365-3.421l26.934-.563Z" fill="#AFCBFF"/></svg>