<svg width="213" height="200" viewBox="0 0 213 200" fill="none" xmlns="http://www.w3.org/2000/svg">
<rect x="94.9496" y="22.2617" width="30" height="187.61" rx="8" transform="rotate(30.4044 94.9496 22.2617)" fill="#234A7D"/>
<rect x="92" y="34.1484" width="30" height="187.61" rx="8" transform="rotate(-30.3278 92 34.1484)" fill="#234A7D"/>
<path d="M100.072 137C103.151 131.667 110.849 131.667 113.928 137L132.115 168.5C135.194 173.833 131.345 180.5 125.187 180.5H88.8135C82.6551 180.5 78.8061 173.833 81.8853 168.5L100.072 137Z" fill="#AFCBFF"/>
<path d="M100.453 12C103.532 6.66666 111.23 6.66666 114.309 12L123.403 27.7499C126.482 33.0833 122.633 39.7499 116.474 39.7499H98.2879C92.1295 39.7499 88.2805 33.0833 91.3597 27.7499L100.453 12Z" fill="#234A7D"/>
</svg>
