<svg xmlns="http://www.w3.org/2000/svg" width="404" height="404" fill="none"><rect width="371.57" height="62.32" x="232.821" y="14.111" fill="#AFCBFF" rx="30" transform="rotate(90 232.821 14.11)"/><rect width="48.21" height="119.704" x="289.322" y="82.389" fill="#AFCBFF" rx="24.105" transform="rotate(133.494 289.322 82.39)"/><rect width="48.21" height="119.309" x="114.059" y="321.882" fill="#AFCBFF" rx="24.105" transform="rotate(-46.506 114.059 321.882)"/><rect width="48.21" height="119.919" x="144.03" y="114.276" fill="#AFCBFF" rx="24.105" transform="rotate(-130.248 144.03 114.276)"/><rect width="48.21" height="118.646" x="258.159" y="290.436" fill="#AFCBFF" rx="24.105" transform="rotate(49.752 258.159 290.436)"/><rect width="371.57" height="62.32" x="389.89" y="230.469" fill="#AFCBFF" rx="30" transform="rotate(-180 389.89 230.469)"/><rect width="48.21" height="119.704" x="321.61" y="286.97" fill="#AFCBFF" rx="24.105" transform="rotate(-136.506 321.61 286.97)"/><rect width="48.21" height="119.309" x="82.118" y="111.708" fill="#AFCBFF" rx="24.105" transform="rotate(43.494 82.118 111.708)"/><rect width="48.21" height="119.919" x="289.724" y="141.679" fill="#AFCBFF" rx="24.105" transform="rotate(-40.248 289.724 141.679)"/><rect width="48.21" height="118.646" x="113.564" y="255.807" fill="#AFCBFF" rx="24.105" transform="rotate(139.752 113.564 255.807)"/></svg>