<svg width="65" height="65" viewBox="0 0 65 65" fill="none" xmlns="http://www.w3.org/2000/svg">
<path d="M55.2557 55.4221C67.841 42.8369 67.841 22.4308 55.2557 9.84555C42.6705 -2.7397 22.2644 -2.73969 9.67917 9.84555C-2.90608 22.4308 -2.90608 42.8369 9.67917 55.4221C22.2644 68.0074 42.6705 68.0074 55.2557 55.4221ZM11.8366 12.003C23.2083 0.631352 41.7266 0.631351 53.0983 12.003C64.4699 23.3747 64.4699 41.893 53.0983 53.2646C41.7266 64.6363 23.2083 64.6363 11.8366 53.2646C0.464969 41.893 0.464969 23.3747 11.8366 12.003Z" fill="#234A7D"/>
<path d="M22.7139 44.5449L41.7715 25.4872L41.7715 39.1512C41.7715 39.9602 42.4907 40.6794 43.2998 40.6794C44.1088 40.6794 44.828 39.9602 44.828 39.1512L44.8729 21.7566C44.8729 21.5768 44.828 21.3521 44.7381 21.1723C44.5583 20.8127 44.2436 20.4981 43.929 20.3632C43.7492 20.2733 43.5245 20.2284 43.3447 20.2284L25.9501 20.2733C25.5006 20.2733 25.141 20.4531 24.8714 20.7228C24.6017 20.9925 24.4219 21.3521 24.4219 21.8015C24.4219 22.6106 25.141 23.3297 25.9501 23.3297L39.6141 23.3297L20.5115 42.4323C19.9272 43.0167 19.9272 44.0055 20.5115 44.5898C21.0958 45.1741 22.0846 45.1741 22.7139 44.5449Z" fill="#234A7D"/>
</svg>
