<svg xmlns="http://www.w3.org/2000/svg" width="65" height="65" fill="none"><path fill="#234A7D" d="M55.256 55.422c12.585-12.585 12.585-32.991 0-45.576C42.67-2.74 22.264-2.74 9.679 9.846c-12.585 12.585-12.585 32.99 0 45.576 12.585 12.585 32.991 12.585 45.577 0Zm-43.42-43.419c11.372-11.372 29.89-11.372 41.262 0s11.372 29.89 0 41.262c-11.371 11.371-29.89 11.371-41.261 0-11.372-11.372-11.372-29.89 0-41.262Z"/><path fill="#234A7D" d="m22.714 44.545 19.058-19.058v13.664c0 .81.719 1.528 1.528 1.528s1.528-.719 1.528-1.528l.045-17.394c0-.18-.045-.405-.135-.585-.18-.36-.494-.674-.809-.809a1.384 1.384 0 0 0-.584-.135l-17.395.045c-.45 0-.809.18-1.079.45-.27.27-.45.63-.45 1.079 0 .809.72 1.528 1.53 1.528h13.663L20.512 42.432a1.547 1.547 0 0 0 0 2.158c.584.584 1.573.584 2.202-.045Z"/></svg>