<svg width="213" height="200" fill="none" xmlns="http://www.w3.org/2000/svg"><rect x="94.95" y="22.262" width="30" height="187.61" rx="8" transform="rotate(30.404 94.95 22.262)" fill="#234A7D"/><rect x="92" y="34.148" width="30" height="187.61" rx="8" transform="rotate(-30.328 92 34.148)" fill="#234A7D"/><path d="M100.072 137c3.079-5.333 10.777-5.333 13.856 0l18.187 31.5c3.079 5.333-.77 12-6.928 12H88.814c-6.159 0-10.008-6.667-6.929-12l18.187-31.5Z" fill="#AFCBFF"/><path d="M100.453 12c3.079-5.333 10.777-5.333 13.856 0l9.094 15.75c3.079 5.333-.77 12-6.929 12H98.288c-6.159 0-10.007-6.667-6.928-12L100.453 12Z" fill="#234A7D"/></svg>