<svg width="155" height="176" viewBox="0 0 155 176" fill="none" xmlns="http://www.w3.org/2000/svg">
<path d="M21.6929 35.9831C14.3806 35.9884 10.8943 26.9901 16.3014 22.0675L30.6183 9.03305C32.073 7.70862 33.9648 6.96667 35.932 6.94898L145.941 5.95987C150.357 5.92017 153.969 9.46534 154.013 13.8807L154.15 27.8136C154.194 32.2602 150.603 35.8892 146.156 35.8924L21.6929 35.9831Z" fill="#234A7D"/>
<path d="M126.028 146C134.148 146 137.102 156.699 130.133 160.866L106.715 174.866C105.474 175.608 104.055 176 102.61 176L7.99984 176C3.58156 176 -0.000148974 172.418 -0.000148781 168L-0.000148169 154C-0.000147976 149.581 3.58157 146 7.99985 146L126.028 146Z" fill="#234A7D"/>
<path d="M31 97C31 101.418 27.4183 105 23 105L8.99999 105C4.58172 105 0.999993 101.418 0.999994 97L0.999999 40C0.999999 35.5817 4.58172 32 9 32L23 32C27.4183 32 31 35.5817 31 40L31 97Z" fill="#234A7D"/>
<rect x="154" y="146" width="30" height="71" rx="8" transform="rotate(-180 154 146)" fill="#234A7D"/>
<rect x="153.548" y="74.8855" width="30" height="152" rx="8" transform="rotate(90 153.548 74.8855)" fill="#234A7D"/>
<path d="M31 35.4999L1.5 35.4999L31 6.5L31 35.4999Z" fill="#AFCBFF"/>
</svg>
