<svg xmlns="http://www.w3.org/2000/svg" width="65" height="65" fill="none"><path fill="#fff" d="M55.016 55.016C67.6 42.43 67.6 22.024 55.016 9.439 42.43-3.146 22.024-3.146 9.439 9.439s-12.585 32.991 0 45.577c12.585 12.585 32.991 12.585 45.577 0Zm-43.42-43.42c11.372-11.371 29.89-11.371 41.262 0 11.372 11.372 11.372 29.89 0 41.262s-29.89 11.372-41.262 0c-11.371-11.372-11.371-29.89 0-41.262Z"/><path fill="#fff" d="M22.474 44.138 41.53 25.081v13.664c0 .809.72 1.528 1.529 1.528.809 0 1.528-.72 1.528-1.528l.045-17.395c0-.18-.045-.405-.135-.584-.18-.36-.495-.675-.81-.81a1.384 1.384 0 0 0-.584-.134l-17.394.045c-.45 0-.81.18-1.079.45-.27.269-.45.628-.45 1.078 0 .809.72 1.528 1.529 1.528h13.664L20.27 42.026a1.547 1.547 0 0 0 0 2.157c.584.584 1.573.584 2.203-.045Z"/></svg>