<svg width="65" height="65" viewBox="0 0 65 65" fill="none" xmlns="http://www.w3.org/2000/svg">
<path d="M55.0155 55.0155C67.6007 42.4303 67.6007 22.0242 55.0155 9.43893C42.4303 -3.14631 22.0242 -3.14631 9.43893 9.43894C-3.14631 22.0242 -3.14631 42.4303 9.43893 55.0155C22.0242 67.6007 42.4303 67.6007 55.0155 55.0155ZM11.5964 11.5964C22.9681 0.224736 41.4864 0.224735 52.858 11.5964C64.2297 22.9681 64.2297 41.4864 52.858 52.858C41.4864 64.2297 22.9681 64.2297 11.5964 52.858C0.224734 41.4864 0.224734 22.9681 11.5964 11.5964Z" fill="white"/>
<path d="M22.4736 44.1383L41.5313 25.0806L41.5313 38.7446C41.5313 39.5536 42.2505 40.2728 43.0595 40.2728C43.8686 40.2728 44.5877 39.5536 44.5877 38.7446L44.6327 21.35C44.6327 21.1702 44.5877 20.9454 44.4978 20.7657C44.318 20.4061 44.0034 20.0914 43.6888 19.9566C43.509 19.8667 43.2843 19.8218 43.1045 19.8218L25.7099 19.8667C25.2604 19.8667 24.9008 20.0465 24.6311 20.3162C24.3614 20.5859 24.1816 20.9454 24.1816 21.3949C24.1816 22.204 24.9008 22.9231 25.7099 22.9231L39.3738 22.9231L20.2712 42.0257C19.6869 42.61 19.6869 43.5989 20.2712 44.1832C20.8555 44.7675 21.8444 44.7675 22.4736 44.1383Z" fill="white"/>
</svg>
