<svg width="155" height="176" fill="none" xmlns="http://www.w3.org/2000/svg"><path d="M21.693 35.983c-7.312.005-10.799-8.993-5.392-13.915L30.618 9.032a8 8 0 0 1 5.314-2.084l110.009-.99a8 8 0 0 1 8.072 7.922l.137 13.933a8 8 0 0 1-7.994 8.078l-124.463.091ZM126.028 146c8.12 0 11.074 10.699 4.105 14.866l-23.418 14A8 8 0 0 1 102.61 176H8a8 8 0 0 1-8-8v-14a8 8 0 0 1 8-8h118.028Z" fill="#234A7D"/><path d="M31 97a8 8 0 0 1-8 8H9a8 8 0 0 1-8-8V40a8 8 0 0 1 8-8h14a8 8 0 0 1 8 8v57Z" fill="#234A7D"/><rect x="154" y="146" width="30" height="71" rx="8" transform="rotate(-180 154 146)" fill="#234A7D"/><rect x="153.548" y="74.885" width="30" height="152" rx="8" transform="rotate(90 153.548 74.885)" fill="#234A7D"/><path d="M31 35.5H1.5L31 6.5v29Z" fill="#AFCBFF"/></svg>